<?xml version="1.0" encoding="iso-8859-1"?>
<!-- Generator: Adobe Illustrator 19.0.0, SVG Export Plug-In . SVG Version: 6.00 Build 0)  -->
<svg version="1.1" id="Capa_1" xmlns="http://www.w3.org/2000/svg" xmlns:xlink="http://www.w3.org/1999/xlink" x="0px" y="0px"
	 viewBox="0 0 512.024 512.024" style="enable-background:new 0 0 512.024 512.024;" xml:space="preserve">
<g>
	<g>
		<path d="M507.336,230.992l-45.248-45.248l33.92-33.952c6.24-6.24,6.24-16.384,0-22.624L382.888,16.016
			c-6.24-6.24-16.384-6.24-22.624,0l-33.952,33.952l-45.28-45.28c-6.24-6.24-16.384-6.24-22.624,0l-56.544,56.576
			c-6.24,6.24-6.24,16.384,0,22.624l101.984,101.984L185.864,303.856L83.88,201.872c-6.24-6.24-16.384-6.24-22.624,0L4.68,258.416
			c-6.24,6.24-6.24,16.384,0,22.624l45.248,45.248l-33.92,33.984c-6.24,6.24-6.24,16.384,0,22.624l113.152,113.12
			c3.136,3.136,7.232,4.672,11.328,4.672s8.192-1.568,11.328-4.672l33.952-33.952l45.248,45.248
			c3.072,3.136,7.168,4.704,11.264,4.704s8.192-1.568,11.328-4.672l56.576-56.576c6.24-6.24,6.24-16.384,0-22.624L208.52,326.48
			l117.984-117.984L428.168,310.16c3.136,3.136,7.232,4.672,11.328,4.672s8.192-1.568,11.328-4.672l56.576-56.576
			C513.576,247.344,513.576,237.232,507.336,230.992z"/>
	</g>
</g>
<g>
</g>
<g>
</g>
<g>
</g>
<g>
</g>
<g>
</g>
<g>
</g>
<g>
</g>
<g>
</g>
<g>
</g>
<g>
</g>
<g>
</g>
<g>
</g>
<g>
</g>
<g>
</g>
<g>
</g>
</svg>
