<svg xmlns="http://www.w3.org/2000/svg" width="485" height="485">
  <path d="M446.2 412.6v55H485v-93.8H38.8V214.6c0-5-1.9-9.6-5.6-13.7a18 18 0 00-13.8-6.2c-5.3 0-10 2-13.7 6.2A19.8 19.8 0 000 214.6v253h38.8v-55h407.4z"/>
  <path d="M109 316.4c9.7 0 18.3-3.4 25.5-10.4 7.3-7 11-15.3 11-25 0-9.9-3.7-18.2-11-25.2a35.8 35.8 0 00-25.5-10.4c-9.8 0-18.2 3.5-25.2 10.4-6.9 7-10.4 15.3-10.4 25.1S77 299.1 83.8 306c7 7 15.4 10.4 25.2 10.4z"/>
  <path d="M134 306.5H84.3a35.7 35.7 0 0049.7 0z"/>
  <path d="M476 287a39 39 0 00-20.4-9l-281.3-27.4h-1.9c-5 0-9.3 1.7-12.8 5.2a17.4 17.4 0 00-5.2 12.8v48.6c-2-4.2-33.4 7.8-45.4 7.8a42.6 42.6 0 01-35.2-17.6 19 19 0 00-13.2 18v8.6a19 19 0 0019 19H484v-47.4c0-7.6-2.6-13.8-8-18.5zM257 17.5a69.6 69.6 0 100 139.2 69.6 69.6 0 000-139.2zm0 118a48.5 48.5 0 11.1-97 48.5 48.5 0 010 97z"/>
  <path d="M263 83.2V56.4a6 6 0 00-6-6 6 6 0 00-6 6v38.8H290a6 6 0 000-12H263z"/>
</svg>
