<svg version="1.0" xmlns="http://www.w3.org/2000/svg" width="133.3" height="133.3" viewBox="0 0 100 100">
  <path d="M31.1 2.5A17.4 17.4 0 0124.6 5C21 5 12.2 9.9 9.1 13.6A25 25 0 004 30.3c0 3.3-.8 7.2-2 9.8C-.6 46-.8 58 1.8 60.3a60.3 60.3 0 0018.3 9.1c.9-.5 1 .9.5 5.9-.9 8.8 1 13.3 8.2 19.7l5.6 5h31.4l5.5-5c7.1-6.5 9.1-11.3 8.2-19.7-.6-6.1-.6-6.3 1.7-6.4 1.3 0 5.9-2.2 10.3-4.7l8-4.7.3-6.6c.2-4.8-.3-8.1-1.8-12-1.2-3.3-2-7.8-2-11.5 0-11.8-7.1-20.6-19.2-23.8-3-.8-7.2-2.3-9.3-3.5C64 .2 61.9 0 49.5 0 36.4 0 35.2.2 31.1 2.5zM65 8.9a40 40 0 008.7 3C80 13.4 86.4 18.6 88 23.6c.7 1.9 1.1 6 .9 9.2-.1 3.7.4 7.1 1.6 9.7a30 30 0 011.9 8.5c.1 4.4 0 4.5-5.2 7.3-6 3.2-7.5 3-10-1.3-.9-1.6-1.9-3-2.2-3-1.1 0-3 13.3-3 21v8.1L67.4 88l-4.7 5H37.3l-4.7-5-4.6-4.9v-8.9c0-4.9-.4-10.2-.9-11.8a60 60 0 01-1.5-5.7L25 54l-3.6 3.5-3.5 3.5-6-3-6-3.1.7-4.7c.4-2.6 1.5-6.4 2.5-8.4 1.3-2.5 1.9-5.9 1.9-10.4 0-11.4 4.3-16.7 16.2-19.8 3.1-.8 6.9-2.1 8.5-3a59.4 59.4 0 0129.3.3z"/>
  <path d="M32.8 52.5a6 6 0 003.6 8l2.1.6-2.2.9c-2.7 1.1-3.2 6-.9 7.9 1.9 1.6 7.9 2.5 11.1 1.7 2.4-.6 2.6-1.1 2.3-4.8-.2-3.5-.7-4.3-2.7-4.8l-2.4-.5 2.7-1.2c2-1 2.6-2 2.6-4.6 0-4.7-1.5-5.7-8.7-5.7-5.8 0-6.4.2-7.5 2.5zM52.2 51.2c-.7.7-1.2 2.7-1.2 4.5 0 2.6.6 3.6 2.6 4.6l2.7 1.2-2.4.5c-2 .5-2.5 1.3-2.7 4.8-.3 3.7-.1 4.2 2.3 4.8 3.2.8 9.2-.1 11.1-1.7 2.3-1.9 1.8-6.8-.8-7.9l-2.3-.9 2.1-.6a6 6 0 003.6-8c-1.1-2.3-1.7-2.5-7.5-2.5-3.6 0-6.8.5-7.5 1.2zM35.4 75.4c-.7 2.9 2.8 10.1 5.7 11.6a9 9 0 004.7.8c2.5-.3 2.7-.6 3-6.1.4-7.5-.6-8.7-7.4-8.7-4.8 0-5.4.2-6 2.4zM52.1 74.4c-.7.9-1.1 3.8-.9 7.3.3 5.5.5 5.8 3 6.1a9 9 0 004.7-.8c2.9-1.5 6.4-8.7 5.7-11.6-.6-2.2-1.2-2.4-6-2.4-3.4 0-5.8.5-6.5 1.4z"/>
</svg>
