<svg version="1.0" xmlns="http://www.w3.org/2000/svg"
 width="100.000000pt" height="100.000000pt" viewBox="0 0 100.000000 100.000000"
 preserveAspectRatio="xMidYMid meet">
<g transform="translate(0.000000,100.000000) scale(0.100000,-0.100000)"
fill="#000000" stroke="none">
<path d="M115 901 c-42 -26 -92 -81 -104 -114 -18 -47 -13 -219 9 -329 35
-170 88 -273 175 -341 l43 -33 188 1 c167 0 194 2 229 20 57 28 125 102 158
171 23 48 38 65 79 89 31 18 62 48 80 74 24 39 28 55 28 116 0 85 -25 141 -84
189 -34 28 -46 31 -117 35 -65 3 -86 -1 -125 -19 -54 -27 -102 -87 -110 -142
l-7 -38 -59 0 c-68 0 -125 -24 -156 -67 l-20 -28 -59 64 c-50 55 -91 113 -93
131 0 3 20 4 44 2 39 -3 47 0 85 36 31 30 41 46 41 71 0 45 -13 64 -66 100
-56 37 -113 41 -159 12z m496 -408 c39 -36 79 -99 79 -126 0 -18 -59 -74 -93
-86 -16 -6 -50 -11 -76 -11 -63 0 -108 30 -144 98 l-29 53 19 32 c31 52 77 77
144 77 54 0 63 -3 100 -37z"/>
</g>
</svg>
