<svg version="1.0" xmlns="http://www.w3.org/2000/svg"
 width="96.000000pt" height="96.000000pt" viewBox="0 0 96.000000 96.000000"
 preserveAspectRatio="xMidYMid meet">
<g transform="translate(0.000000,96.000000) scale(0.100000,-0.100000)"
fill="#000000" stroke="none">
<path d="M305 940 c-21 -11 -62 -26 -90 -35 -114 -33 -175 -110 -175 -222 0
-39 -7 -76 -20 -104 -13 -31 -20 -66 -20 -116 0 -67 2 -73 28 -91 49 -34 141
-82 157 -82 12 0 15 -14 15 -70 0 -85 11 -110 79 -173 l50 -47 149 0 148 0 42
31 c67 49 92 101 92 192 0 71 2 77 20 77 23 0 161 75 172 93 15 23 8 127 -12
179 -12 32 -20 77 -20 112 0 107 -63 190 -164 217 -23 6 -65 22 -94 35 -47 22
-66 24 -185 24 -113 0 -139 -3 -172 -20z m322 -67 c17 -13 42 -23 55 -23 40 0
126 -49 148 -84 15 -26 20 -50 20 -105 0 -46 6 -83 16 -102 8 -17 18 -52 21
-79 l6 -48 -54 -30 c-58 -34 -81 -31 -101 14 -6 13 -14 24 -17 24 -12 0 -31
-129 -31 -207 l0 -77 -50 -48 -50 -48 -110 0 -110 0 -50 48 -50 48 0 88 c0 51
-7 111 -16 143 l-16 55 -34 -33 -34 -33 -55 27 c-64 31 -67 42 -36 135 10 31
21 90 24 129 3 58 9 79 30 107 29 37 98 76 138 76 13 1 44 12 69 25 41 23 55
25 150 23 90 -3 109 -6 137 -25z"/>
<path d="M310 749 c-14 -22 -44 -56 -67 -75 -47 -39 -51 -55 -28 -112 30 -70
49 -82 132 -82 47 0 85 6 103 15 27 14 33 14 60 0 18 -9 56 -15 103 -15 83 0
102 12 132 82 23 56 19 68 -37 124 -29 28 -62 64 -74 79 -20 27 -23 28 -53 16
-17 -8 -48 -27 -68 -43 l-36 -29 -26 25 c-29 26 -83 56 -103 56 -7 0 -24 -18
-38 -41z"/>
</g>
</svg>
