<svg version="1.0" xmlns="http://www.w3.org/2000/svg"
 width="100.000000pt" height="100.000000pt" viewBox="0 0 100.000000 100.000000"
 preserveAspectRatio="xMidYMid meet">
<g transform="translate(0.000000,100.000000) scale(0.100000,-0.100000)"
fill="#000000" stroke="none">
<path d="M330 940 c-14 -11 -34 -20 -45 -20 -37 0 -120 -47 -157 -88 -42 -47
-52 -86 -46 -174 3 -36 -1 -76 -8 -97 -7 -20 -13 -59 -14 -88 0 -51 0 -51 50
-82 58 -36 80 -38 104 -13 13 15 16 35 14 93 -3 60 0 74 12 74 16 0 18 -17 35
-296 4 -69 13 -132 19 -140 6 -8 27 -27 47 -42 34 -26 41 -27 159 -27 118 0
125 1 159 27 20 15 41 34 47 42 6 8 15 71 19 140 17 279 19 296 35 296 12 0
15 -14 12 -74 -2 -58 1 -78 14 -93 24 -25 46 -23 104 13 50 31 50 31 50 82 -1
29 -7 68 -14 88 -7 21 -11 61 -8 97 6 88 -4 127 -46 174 -36 40 -120 88 -154
88 -10 0 -32 9 -50 20 -29 17 -50 20 -173 20 -124 0 -143 -3 -165 -20z m18
-166 c-3 -42 -10 -70 -20 -81 -19 -19 -108 -29 -163 -19 -31 6 -35 10 -35 38
0 64 62 126 153 153 38 11 43 10 56 -7 9 -13 12 -40 9 -84z m439 60 c48 -28
83 -79 83 -122 0 -28 -4 -32 -35 -38 -55 -10 -144 0 -162 19 -22 21 -30 130
-13 162 11 21 16 22 49 13 20 -5 55 -21 78 -34z"/>
</g>
</svg>
