<svg xmlns="http://www.w3.org/2000/svg" viewBox="0 0 512 512">
  <path d="M508.75 246.04c-4.58-6.26-113.56-153.2-252.75-153.2S7.82 239.78 3.25 246.03a16.9 16.9 0 000 19.92C7.82 272.2 116.8 419.16 256 419.16s248.17-146.95 252.74-153.2c4.34-5.93 4.34-13.99 0-19.92zM256 385.41c-102.53 0-191.33-97.54-217.62-129.42 26.25-31.92 114.87-129.4 217.62-129.4 102.52 0 191.32 97.52 217.61 129.42-26.25 31.91-114.86 129.4-217.61 129.4z"/>
  <path d="M256 154.72c-55.84 0-101.28 45.44-101.28 101.28S200.16 357.28 256 357.28 357.27 311.83 357.27 256 311.84 154.72 256 154.72zm0 168.8c-37.23 0-67.52-30.3-67.52-67.52s30.29-67.52 67.52-67.52 67.51 30.3 67.51 67.52-30.28 67.52-67.51 67.52z"/>
</svg>
