<svg xmlns="http://www.w3.org/2000/svg" viewBox="0 0 469.3 469.3">
  <path d="M426.7 0h-384A42.7 42.7 0 000 42.7v384a42.7 42.7 0 0042.7 42.6h384a42.7 42.7 0 0042.6-42.6v-384A42.7 42.7 0 00426.7 0zM448 426.7c0 11.7-9.6 21.3-21.3 21.3h-384a21.4 21.4 0 01-21.4-21.3v-384c0-11.8 9.6-21.4 21.4-21.4h384c11.7 0 21.3 9.6 21.3 21.4v384z"/>
  <path d="M234.7 64c-51.3 0-99.5 20-135.8 56.2-4.2 4.2-4.2 11 0 15.1l60.3 60.4c4.2 4.1 11 4.1 15.1 0a85.4 85.4 0 01120.7 0 10.6 10.6 0 0015 0l60.4-60.4c4.2-4.1 4.2-10.9 0-15A190.7 190.7 0 00234.7 64zm67.5 109.4a106.4 106.4 0 00-97.4-19.5L191 123.6a10.7 10.7 0 10-19.4 8.8l13.4 29.4c-6.2 3.3-12.2 7-17.8 11.6L121.8 128c31.2-27.6 70.9-42.7 112.9-42.7s81.7 15.1 112.9 42.7l-45.4 45.4z"/>
</svg>
