<svg height="512" width="512" viewBox="0 0 512 512" xmlns="http://www.w3.org/2000/svg">
  <path d="M15 421h75v45a15 15 0 0015 15h392a15 15 0 0015-15V76a15 15 0 00-15-15h-75V46a15 15 0 00-30 0v15h-76V46a15 15 0 00-30 0v15h-75V46a15 15 0 00-30 0v15h-76a15 15 0 00-15 15v90c0 110.5-46 195.6-84.6 228.5A15 15 0 0015 421zm467 30H120v-30h287c3.5 0 7-1.2 9.6-3.5 18-15 46-50.8 65.4-96.6zM120 91h61v15a15 15 0 0030 0V91h75v15a15 15 0 0030 0V91h76v15a15 15 0 0030 0V91h60v60H120zm-.3 90h362c-3.3 95.1-39.9 170-80.6 210h-352c46.2-58.8 68.2-135.3 70.6-210z"/>
</svg>
