<?xml version="1.0" standalone="no"?>
<!DOCTYPE svg PUBLIC "-//W3C//DTD SVG 20010904//EN"
 "http://www.w3.org/TR/2001/REC-SVG-20010904/DTD/svg10.dtd">
<svg version="1.0" xmlns="http://www.w3.org/2000/svg"
 width="100.000000pt" height="100.000000pt" viewBox="0 0 100.000000 100.000000"
 preserveAspectRatio="xMidYMid meet">
<metadata>
Created by potrace 1.16, written by Peter Selinger 2001-2019
</metadata>
<g transform="translate(0.000000,100.000000) scale(0.100000,-0.100000)"
fill="#000000" stroke="none">
<path d="M311 975 c-23 -14 -53 -25 -65 -25 -36 0 -124 -49 -155 -86 -35 -44
-51 -95 -51 -167 0 -33 -8 -72 -20 -98 -26 -59 -28 -179 -2 -202 32 -29 172
-98 183 -91 9 5 10 -9 5 -59 -9 -88 10 -133 82 -197 l56 -50 157 0 157 0 55
50 c71 65 91 113 82 197 -6 61 -6 63 17 64 13 0 59 22 103 47 l80 47 3 66 c2
48 -3 81 -18 120 -12 33 -20 78 -20 115 0 118 -71 206 -192 238 -30 8 -72 23
-93 35 -35 19 -56 21 -180 21 -131 0 -143 -2 -184 -25z m339 -64 c19 -10 58
-24 87 -30 63 -15 127 -67 143 -117 7 -19 11 -60 9 -92 -1 -37 4 -71 16 -97 9
-22 18 -60 19 -85 1 -44 0 -45 -52 -73 -60 -32 -75 -30 -100 13 -9 16 -19 30
-22 30 -11 0 -30 -133 -30 -210 l0 -81 -46 -49 -47 -50 -127 0 -127 0 -47 50
-46 49 0 89 c0 49 -4 102 -9 118 -5 16 -12 41 -15 57 l-6 27 -36 -35 -35 -35
-60 30 -60 31 7 47 c4 26 15 64 25 84 13 25 19 59 19 104 0 114 43 167 162
198 31 8 69 21 85 30 44 24 247 22 293 -3z"/>
<path d="M328 475 c-14 -31 4 -70 36 -80 l21 -6 -22 -9 c-27 -11 -32 -60 -9
-79 19 -16 79 -25 111 -17 24 6 26 11 23 48 -2 35 -7 43 -27 48 l-24 5 27 12
c20 10 26 20 26 46 0 47 -15 57 -87 57 -58 0 -64 -2 -75 -25z"/>
<path d="M522 488 c-7 -7 -12 -27 -12 -45 0 -26 6 -36 26 -46 l27 -12 -24 -5
c-20 -5 -25 -13 -27 -48 -3 -37 -1 -42 23 -48 32 -8 92 1 111 17 23 19 18 68
-8 79 l-23 9 21 6 c32 10 50 49 36 80 -11 23 -17 25 -75 25 -36 0 -68 -5 -75
-12z"/>
<path d="M354 246 c-7 -29 28 -101 57 -116 11 -6 32 -10 47 -8 25 3 27 6 30
61 4 75 -6 87 -74 87 -48 0 -54 -2 -60 -24z"/>
<path d="M521 256 c-7 -9 -11 -38 -9 -73 3 -55 5 -58 30 -61 15 -2 36 2 47 8
29 15 64 87 57 116 -6 22 -12 24 -60 24 -34 0 -58 -5 -65 -14z"/>
</g>
</svg>
