<?xml version="1.0" standalone="no"?>
<!DOCTYPE svg PUBLIC "-//W3C//DTD SVG 20010904//EN"
 "http://www.w3.org/TR/2001/REC-SVG-20010904/DTD/svg10.dtd">
<svg version="1.0" xmlns="http://www.w3.org/2000/svg"
 width="100.000000pt" height="100.000000pt" viewBox="0 0 100.000000 100.000000"
 preserveAspectRatio="xMidYMid meet">
<metadata>
Created by potrace 1.16, written by Peter Selinger 2001-2019
</metadata>
<g transform="translate(0.000000,100.000000) scale(0.100000,-0.100000)"
fill="#000000" stroke="none">
<path d="M305 975 c-27 -13 -69 -28 -92 -34 -106 -28 -171 -117 -177 -241 -2
-41 -11 -93 -19 -115 -9 -22 -16 -70 -17 -107 0 -64 1 -68 32 -91 56 -42 124
-77 147 -77 22 0 22 -2 16 -63 -9 -84 11 -132 82 -197 l55 -50 168 0 168 0 55
50 c71 65 91 113 82 197 -6 61 -6 63 16 63 23 0 91 35 147 77 31 23 32 27 32
91 -1 37 -8 85 -17 107 -8 22 -17 74 -19 115 -6 124 -71 213 -177 241 -23 6
-66 22 -95 35 -48 22 -65 24 -195 23 -128 0 -147 -3 -192 -24z m349 -80 c20
-14 46 -25 57 -25 31 0 91 -28 121 -57 36 -34 50 -79 47 -150 -2 -38 3 -68 13
-88 9 -16 19 -49 23 -72 6 -41 6 -42 -35 -68 -23 -14 -48 -29 -55 -31 -19 -8
-33 23 -46 107 -10 63 -18 80 -50 115 -46 52 -67 90 -75 143 -4 23 -12 41 -19
41 -20 0 -79 -74 -106 -130 -13 -28 -26 -50 -29 -50 -3 0 -18 24 -32 54 -30
60 -83 126 -103 126 -7 0 -15 -18 -19 -41 -8 -53 -29 -91 -75 -143 -32 -35
-40 -52 -50 -115 -13 -84 -27 -115 -46 -107 -7 2 -32 17 -55 31 -41 26 -41 27
-35 68 4 23 15 56 23 72 11 20 16 57 17 107 0 61 4 82 21 105 30 40 78 70 125
78 22 4 59 18 82 31 37 21 54 24 153 24 102 0 114 -2 148 -25z m-144 -429 c0
-51 96 -299 113 -293 6 2 16 20 23 40 7 20 24 52 37 72 l24 36 7 -47 c11 -82
8 -93 -40 -144 l-47 -50 -127 0 -127 0 -47 50 c-48 51 -51 62 -40 143 l7 46
20 -25 c10 -14 27 -46 37 -72 10 -25 22 -48 27 -49 14 -5 57 96 90 209 25 88
43 123 43 84z"/>
</g>
</svg>
