<?xml version="1.0" standalone="no"?>
<!DOCTYPE svg PUBLIC "-//W3C//DTD SVG 20010904//EN"
 "http://www.w3.org/TR/2001/REC-SVG-20010904/DTD/svg10.dtd">
<svg version="1.0" xmlns="http://www.w3.org/2000/svg"
 width="100.000000pt" height="100.000000pt" viewBox="0 0 100.000000 100.000000"
 preserveAspectRatio="xMidYMid meet">
<metadata>
Created by potrace 1.16, written by Peter Selinger 2001-2019
</metadata>
<g transform="translate(0.000000,100.000000) scale(0.100000,-0.100000)"
fill="#000000" stroke="none">
<path d="M330 940 c-14 -11 -33 -20 -42 -20 -31 0 -106 -39 -147 -75 -50 -46
-63 -85 -60 -182 1 -43 -3 -94 -10 -113 -6 -19 -11 -56 -11 -82 0 -45 2 -47
50 -77 28 -17 59 -31 69 -31 31 0 51 33 51 83 0 54 16 63 25 15 11 -66 25
-215 25 -273 1 -65 7 -77 61 -118 34 -26 41 -27 159 -27 118 0 125 1 159 27
54 41 60 53 61 118 0 64 16 232 26 278 9 44 24 31 24 -21 0 -35 5 -54 18 -65
26 -24 45 -21 102 14 48 30 50 32 50 77 0 26 -5 65 -12 87 -6 22 -11 81 -12
132 -1 76 -5 96 -22 120 -32 42 -94 87 -144 102 -25 7 -61 22 -81 32 -31 16
-59 19 -175 19 -123 0 -142 -3 -164 -20z m76 -185 c38 -28 59 -35 94 -35 35 0
56 7 94 35 56 40 115 47 155 19 22 -16 23 -22 19 -101 -3 -63 -9 -90 -25 -111
-56 -76 -176 -72 -221 9 -10 16 -19 29 -22 29 -3 0 -12 -13 -22 -29 -45 -81
-165 -85 -221 -9 -16 21 -22 48 -25 111 -4 79 -3 85 19 101 40 28 99 21 155
-19z"/>
</g>
</svg>
