<?xml version="1.0" standalone="no"?>
<!DOCTYPE svg PUBLIC "-//W3C//DTD SVG 20010904//EN"
 "http://www.w3.org/TR/2001/REC-SVG-20010904/DTD/svg10.dtd">
<svg version="1.0" xmlns="http://www.w3.org/2000/svg"
 width="100.000000pt" height="100.000000pt" viewBox="0 0 100.000000 100.000000"
 preserveAspectRatio="xMidYMid meet">
<metadata>
Created by potrace 1.16, written by Peter Selinger 2001-2019
</metadata>
<g transform="translate(0.000000,100.000000) scale(0.100000,-0.100000)"
fill="#000000" stroke="none">
<path d="M193 903 c-7 -32 -21 -101 -32 -153 -26 -118 -28 -316 -6 -440 11
-60 14 -112 9 -177 l-6 -93 110 0 c68 0 113 4 117 11 4 5 11 52 15 102 5 54
23 143 44 215 27 93 36 142 36 198 0 67 2 74 20 74 18 0 20 -7 20 -74 0 -56 9
-105 36 -198 21 -72 39 -161 44 -215 4 -50 11 -97 15 -102 4 -7 49 -11 117
-11 l110 0 -7 93 c-5 68 -2 115 9 176 23 119 21 322 -4 436 -11 50 -25 118
-32 153 l-13 62 -295 0 -295 0 -12 -57z m156 -413 c26 -119 27 -216 4 -242
-25 -28 -79 -24 -108 8 -38 41 -50 97 -50 229 0 130 9 161 71 235 l28 32 17
-83 c10 -46 27 -127 38 -179z m427 167 c27 -49 29 -58 29 -172 0 -132 -12
-188 -50 -229 -28 -30 -78 -35 -107 -9 -24 22 -24 119 2 238 10 50 27 129 37
177 l18 87 21 -20 c12 -11 34 -43 50 -72z"/>
</g>
</svg>
