<?xml version="1.0" standalone="no"?>
<!DOCTYPE svg PUBLIC "-//W3C//DTD SVG 20010904//EN"
 "http://www.w3.org/TR/2001/REC-SVG-20010904/DTD/svg10.dtd">
<svg version="1.0" xmlns="http://www.w3.org/2000/svg"
 width="100.000000pt" height="100.000000pt" viewBox="0 0 100.000000 100.000000"
 preserveAspectRatio="xMidYMid meet">
<metadata>
Created by potrace 1.16, written by Peter Selinger 2001-2019
</metadata>
<g transform="translate(0.000000,100.000000) scale(0.100000,-0.100000)"
fill="#000000" stroke="none">
<path d="M320 940 c-14 -11 -32 -20 -40 -20 -33 -1 -117 -49 -152 -88 -42 -47
-52 -86 -46 -174 3 -36 -1 -76 -8 -97 -7 -20 -13 -59 -14 -88 0 -51 0 -51 50
-82 92 -57 115 -39 115 88 0 70 3 86 15 86 16 0 15 9 35 -316 4 -69 13 -132
19 -140 6 -8 27 -27 47 -42 34 -26 41 -27 159 -27 118 0 125 1 159 27 20 15
41 34 47 42 6 8 15 71 19 140 20 325 19 316 35 316 12 0 15 -16 15 -86 0 -127
23 -145 115 -88 50 31 50 31 50 82 -1 29 -7 68 -14 88 -7 21 -11 61 -8 97 6
88 -4 127 -46 174 -35 39 -119 87 -152 88 -8 0 -26 9 -40 20 -33 26 -90 27
-90 2 0 -12 15 -25 40 -36 44 -19 48 -32 24 -82 -32 -67 -96 -94 -136 -57 -17
15 -19 15 -36 0 -40 -37 -104 -10 -136 57 -24 50 -20 63 24 82 25 11 40 24 40
36 0 25 -57 24 -90 -2z"/>
</g>
</svg>
