<?xml version="1.0" standalone="no"?>
<!DOCTYPE svg PUBLIC "-//W3C//DTD SVG 20010904//EN"
 "http://www.w3.org/TR/2001/REC-SVG-20010904/DTD/svg10.dtd">
<svg version="1.0" xmlns="http://www.w3.org/2000/svg"
 width="100.000000pt" height="100.000000pt" viewBox="0 0 100.000000 100.000000"
 preserveAspectRatio="xMidYMid meet">
<metadata>
Created by potrace 1.16, written by Peter Selinger 2001-2019
</metadata>
<g transform="translate(0.000000,100.000000) scale(0.100000,-0.100000)"
fill="#000000" stroke="none">
<path d="M371 955 c-17 -24 -45 -75 -62 -112 -17 -37 -37 -80 -45 -95 -19 -36
-18 -92 5 -136 10 -20 21 -59 24 -87 3 -27 25 -99 48 -160 45 -120 59 -209 37
-237 -13 -17 -172 -78 -204 -78 -10 0 -14 -7 -12 -22 3 -23 4 -23 201 -24 254
-2 253 -3 195 141 -35 87 -32 56 -25 371 2 68 0 74 -32 115 l-34 42 35 31 c19
17 60 47 92 66 94 57 206 175 206 218 0 9 -46 12 -198 12 l-199 0 -32 -45z"/>
</g>
</svg>
