<?xml version="1.0" standalone="no"?>
<!DOCTYPE svg PUBLIC "-//W3C//DTD SVG 20010904//EN"
 "http://www.w3.org/TR/2001/REC-SVG-20010904/DTD/svg10.dtd">
<svg version="1.0" xmlns="http://www.w3.org/2000/svg"
 width="100.000000pt" height="100.000000pt" viewBox="0 0 100.000000 100.000000"
 preserveAspectRatio="xMidYMid meet">
<metadata>
Created by potrace 1.16, written by Peter Selinger 2001-2019
</metadata>
<g transform="translate(0.000000,100.000000) scale(0.100000,-0.100000)"
fill="#000000" stroke="none">
<path d="M115 901 c-42 -26 -92 -81 -104 -114 -18 -47 -13 -219 9 -329 36
-173 99 -291 186 -349 39 -25 41 -26 224 -25 163 1 190 3 225 21 58 28 126
101 159 170 23 49 37 66 78 90 31 18 62 48 80 74 24 39 28 55 28 116 0 85 -25
141 -84 189 -34 28 -46 31 -117 35 -65 3 -86 -1 -125 -19 -54 -27 -102 -87
-110 -142 l-7 -38 -59 0 c-68 0 -125 -24 -156 -67 l-20 -28 -59 64 c-50 55
-91 113 -93 131 0 3 20 4 44 2 39 -3 47 0 85 36 31 30 41 46 41 71 0 45 -13
64 -66 100 -56 37 -113 41 -159 12z m664 -578 c-27 -73 -100 -152 -162 -178
-42 -17 -105 -21 -190 -10 -57 7 -58 8 -40 27 32 35 72 49 171 57 l96 8 46 50
c37 40 74 71 87 73 1 0 -2 -12 -8 -27z"/>
</g>
</svg>
