<?xml version="1.0" standalone="no"?>
<!DOCTYPE svg PUBLIC "-//W3C//DTD SVG 20010904//EN"
 "http://www.w3.org/TR/2001/REC-SVG-20010904/DTD/svg10.dtd">
<svg version="1.0" xmlns="http://www.w3.org/2000/svg"
 width="100.000000pt" height="100.000000pt" viewBox="0 0 100.000000 100.000000"
 preserveAspectRatio="xMidYMid meet">
<metadata>
Created by potrace 1.16, written by Peter Selinger 2001-2019
</metadata>
<g transform="translate(0.000000,100.000000) scale(0.100000,-0.100000)"
fill="#000000" stroke="none">
<path d="M747 893 c-61 -43 -67 -50 -61 -73 10 -38 10 -45 -1 -48 -5 -2 -14
10 -19 27 -9 32 -21 37 -45 22 -12 -8 -13 -16 -4 -45 17 -56 -9 -67 -27 -11
-9 28 -17 35 -37 35 -21 0 -24 -3 -19 -22 18 -66 18 -68 4 -68 -9 0 -19 15
-24 33 -7 24 -16 33 -36 35 -26 3 -26 2 -16 -32 6 -20 9 -39 5 -42 -11 -11
-25 6 -32 36 -5 24 -12 30 -32 30 -24 0 -24 -2 -18 -41 9 -54 -16 -50 -30 5
l-9 38 -51 -7 c-76 -10 -97 -27 -93 -78 3 -36 7 -44 35 -57 19 -9 33 -23 33
-33 0 -32 -52 -73 -110 -87 -30 -7 -70 -18 -87 -26 -30 -12 -33 -17 -33 -54 0
-47 7 -63 57 -128 19 -25 49 -77 68 -116 22 -47 44 -77 63 -88 36 -22 113 -23
150 -4 40 21 109 96 126 136 21 51 93 116 155 139 71 27 122 63 185 133 81 89
109 148 114 238 5 83 -7 120 -56 173 -38 40 -74 36 -155 -20z m140 -236 c-47
-102 -152 -203 -248 -238 -73 -27 -150 -98 -191 -176 -51 -97 -142 -139 -202
-92 -34 27 -33 32 8 47 20 8 49 32 72 64 33 42 49 55 101 73 39 14 99 50 157
93 79 59 96 78 108 113 15 46 20 49 87 70 37 12 52 24 85 74 48 71 61 55 23
-28z"/>
</g>
</svg>
